Hanif_Shallow_7_5_grf.mot
version=1
nRows=64
nColumns=19
inDegrees=yes
endheader
time	right_ground_force_vx	right_ground_force_vy	right_ground_force_vz	right_ground_force_px	right_ground_force_py	right_ground_force_pz	right_ground_torque_x	right_ground_torque_y	right_ground_torque_z	left_ground_force_vx	left_ground_force_vy	left_ground_force_vz	left_ground_force_px	left_ground_force_py	left_ground_force_pz	left_ground_torque_x	left_ground_torque_y	left_ground_torque_z
7.300000	2.071160	299.753000	26.137900	0.165751	0.000000	-1.450200	-16.696500	5.427570	-9.881240	-7.447360	305.988000	-26.981800	0.197671	0.000000	-0.979447	23.513900	-4.512120	-0.270158
7.305000	1.625160	299.609000	25.669100	0.166137	0.000000	-1.450590	-16.578200	5.465580	-9.759740	-7.093820	305.891000	-27.006200	0.197944	0.000000	-0.979970	23.658000	-4.405530	-0.196783
7.310000	2.358990	300.231000	26.145900	0.166876	0.000000	-1.450440	-16.644300	5.555910	-9.547760	-6.620780	305.703000	-27.079600	0.198640	0.000000	-0.980433	23.778000	-4.444370	0.020013
7.315000	1.838630	299.869000	26.002900	0.166420	0.000000	-1.449870	-16.804200	5.342420	-9.690910	-6.344530	307.167000	-26.635800	0.198816	0.000000	-0.979904	23.723600	-4.440950	0.060928
7.320000	1.654040	299.822000	26.377800	0.166078	0.000000	-1.449350	-16.961100	5.530470	-9.770880	-6.361430	304.032000	-27.042400	0.199160	0.000000	-0.980777	23.750000	-4.463390	0.183622
7.325000	1.623430	300.042000	26.660200	0.166863	0.000000	-1.449370	-16.966600	5.422500	-9.547220	-6.634670	306.403000	-26.635400	0.199150	0.000000	-0.979963	23.688500	-4.449160	0.168606
7.330000	1.388900	300.170000	26.997800	0.166862	0.000000	-1.450120	-16.753300	5.452380	-9.544170	-6.331000	305.088000	-26.935700	0.199225	0.000000	-0.980378	23.709000	-4.439380	0.196829
7.335000	1.094980	301.067000	26.771900	0.167308	0.000000	-1.449450	-17.009400	5.443050	-9.441940	-6.113830	305.959000	-26.826200	0.199912	0.000000	-0.980661	23.859400	-4.448780	0.404588
7.340000	1.345000	299.555000	26.781200	0.167382	0.000000	-1.450110	-16.722400	5.349630	-9.377530	-6.405380	304.992000	-26.412800	0.199818	0.000000	-0.981104	23.925400	-4.468250	0.374238
7.345000	1.326400	301.107000	26.649000	0.167215	0.000000	-1.449620	-16.957500	5.492740	-9.469620	-6.085600	305.768000	-26.584500	0.200143	0.000000	-0.981682	24.156800	-4.453060	0.472864
7.350000	0.874327	300.808000	26.672100	0.167312	0.000000	-1.449200	-17.071500	5.431590	-9.432790	-6.309870	305.102000	-26.445300	0.200786	0.000000	-0.981198	23.961400	-4.468840	0.671631
7.355000	0.424457	300.827000	26.181500	0.167613	0.000000	-1.449550	-16.976400	5.526400	-9.337630	-6.031250	302.992000	-26.422900	0.200909	0.000000	-0.981358	23.841800	-4.524560	0.713334
7.360000	0.032903	302.536000	26.213400	0.167811	0.000000	-1.449460	-17.104900	5.385620	-9.345080	-6.020820	304.428000	-26.762100	0.200949	0.000000	-0.982371	24.261200	-4.469780	0.726009
7.365000	-0.018898	300.192000	25.980800	0.167445	0.000000	-1.448920	-17.134600	5.342070	-9.383620	-6.105920	307.802000	-26.893200	0.201196	0.000000	-0.981093	24.135000	-4.431080	0.799728
7.370000	-0.152721	300.522000	26.094000	0.167688	0.000000	-1.449710	-16.918200	5.301600	-9.322580	-6.226990	308.269000	-26.528500	0.201832	0.000000	-0.981355	24.255600	-4.476360	0.996070
7.375000	0.534844	302.175000	26.227500	0.167517	0.000000	-1.449370	-17.103400	5.349590	-9.427690	-5.888990	308.788000	-26.360700	0.201729	0.000000	-0.981300	24.273400	-4.487280	0.960217
7.380000	0.300120	302.879000	26.147000	0.167981	0.000000	-1.449750	-17.033800	5.412780	-9.304460	-6.375570	308.217000	-26.564900	0.202419	0.000000	-0.982260	24.532600	-4.423900	1.175940
7.385000	0.966150	303.100000	25.835800	0.167207	0.000000	-1.448430	-17.434300	5.509750	-9.546800	-6.675140	310.061000	-26.902900	0.202818	0.000000	-0.980549	24.154400	-4.489920	1.314900
7.390000	0.740348	303.503000	26.132600	0.167723	0.000000	-1.448950	-17.303200	5.545310	-9.394920	-6.534370	310.681000	-26.719700	0.203183	0.000000	-0.982126	24.688300	-4.414660	1.420430
7.395000	1.239920	304.013000	26.549900	0.167573	0.000000	-1.449260	-17.232300	5.499460	-9.459160	-7.117590	311.137000	-26.683100	0.203280	0.000000	-0.980993	24.382900	-4.452340	1.457620
7.400000	1.859920	309.037000	26.641200	0.168324	0.000000	-1.449680	-17.375700	5.741560	-9.375880	-6.924030	309.434000	-27.006500	0.203251	0.000000	-0.981514	24.407400	-4.393830	1.444480
7.405000	1.956020	310.047000	27.304400	0.168099	0.000000	-1.448540	-17.784500	5.664310	-9.478610	-7.260460	310.508000	-27.149000	0.203772	0.000000	-0.980988	24.333300	-4.354660	1.610580
7.410000	1.904910	311.912000	27.916200	0.168801	0.000000	-1.448580	-17.879800	5.753160	-9.304180	-7.379530	311.428000	-26.724700	0.203835	0.000000	-0.981631	24.610200	-4.475660	1.637130
7.415000	1.949400	314.854000	28.544500	0.169127	0.000000	-1.448880	-17.954600	5.879670	-9.277480	-7.370240	311.780000	-27.376100	0.204485	0.000000	-0.982338	24.855500	-4.348370	1.842420
7.420000	2.091050	317.001000	29.308100	0.169122	0.000000	-1.447930	-18.376500	5.908020	-9.337160	-7.733800	315.582000	-27.621100	0.204273	0.000000	-0.982103	25.088800	-4.385010	1.796090
7.425000	2.233720	322.198000	29.634300	0.169620	0.000000	-1.448270	-18.566000	5.997880	-9.331460	-7.601480	318.628000	-28.244600	0.204561	0.000000	-0.981821	25.238600	-4.476060	1.914720
7.430000	1.911090	326.734000	30.819100	0.170283	0.000000	-1.448730	-18.682200	6.157720	-9.225390	-6.890860	320.918000	-27.417200	0.205241	0.000000	-0.981871	25.421400	-4.457350	2.121550
7.435000	2.146810	330.394000	31.423500	0.170660	0.000000	-1.448510	-18.961700	6.188530	-9.204500	-6.773940	321.818000	-27.995200	0.205466	0.000000	-0.981667	25.424700	-4.451370	2.206040
7.440000	1.632490	335.297000	31.940000	0.171040	0.000000	-1.448080	-19.396000	6.370750	-9.200380	-6.968170	325.160000	-28.825200	0.205245	0.000000	-0.981926	25.776400	-4.561460	2.171870
7.445000	0.974983	338.006000	33.019400	0.171397	0.000000	-1.448380	-19.459500	6.330580	-9.147430	-7.040720	325.609000	-28.676200	0.205875	0.000000	-0.982846	26.113200	-4.577350	2.380580
7.450000	1.472910	342.674000	33.125900	0.171736	0.000000	-1.447840	-19.908000	6.370350	-9.168430	-6.819900	327.572000	-28.547700	0.206341	0.000000	-0.981570	25.847000	-4.548460	2.535940
7.455000	1.294840	342.795000	33.853500	0.171555	0.000000	-1.446850	-20.257300	6.325420	-9.228870	-7.102970	330.399000	-28.407700	0.206052	0.000000	-0.981949	26.199200	-4.600710	2.458090
7.460000	1.314480	347.702000	34.409700	0.171859	0.000000	-1.447860	-20.194700	6.398270	-9.254710	-6.680610	330.690000	-29.097400	0.206189	0.000000	-0.982138	26.277700	-4.612690	2.514910
7.465000	2.253180	349.425000	35.549200	0.171841	0.000000	-1.447240	-20.495700	6.740980	-9.268930	-6.694270	331.339000	-30.082300	0.205992	0.000000	-0.982222	26.358400	-4.684980	2.475110
7.470000	2.641270	354.286000	36.436200	0.172818	0.000000	-1.446570	-21.013200	6.817850	-9.047080	-6.876010	335.554000	-30.218200	0.206300	0.000000	-0.981858	26.570900	-4.624460	2.596560
7.475000	3.053820	355.336000	37.000100	0.172698	0.000000	-1.445760	-21.355900	6.937160	-9.103460	-6.833210	336.780000	-31.114000	0.206931	0.000000	-0.982176	26.776500	-4.743980	2.842260
7.480000	3.298440	361.953000	37.871400	0.172980	0.000000	-1.446820	-21.366300	6.979830	-9.177300	-6.994040	338.842000	-32.000500	0.206804	0.000000	-0.982562	27.071900	-4.703070	2.822850
7.485000	3.239150	365.617000	38.751300	0.173719	0.000000	-1.446170	-21.823700	7.128070	-8.981740	-6.684760	341.703000	-32.602400	0.207133	0.000000	-0.981900	27.068000	-4.737430	2.961910
7.490000	3.222230	371.055000	40.199700	0.174151	0.000000	-1.446270	-22.109300	7.226320	-8.942070	-6.828400	345.283000	-33.620900	0.207425	0.000000	-0.982394	27.525400	-4.870450	3.114900
7.495000	3.900840	374.177000	40.724600	0.174123	0.000000	-1.445310	-22.645200	7.340890	-9.023980	-6.841720	348.281000	-34.099600	0.207638	0.000000	-0.982631	27.845200	-4.855110	3.214330
7.500000	3.746270	379.396000	42.142500	0.174412	0.000000	-1.445450	-22.910600	7.465110	-9.023850	-6.770640	351.910000	-35.248000	0.207786	0.000000	-0.982482	28.081400	-4.946370	3.316680
7.505000	3.878110	384.042000	42.737400	0.175131	0.000000	-1.445550	-23.153200	7.438440	-8.867430	-7.073370	353.516000	-35.537100	0.208212	0.000000	-0.982845	28.343300	-4.974280	3.489200
7.510000	3.971650	384.831000	43.376900	0.175253	0.000000	-1.446030	-23.014800	7.575580	-8.817480	-7.091380	359.243000	-36.631000	0.208111	0.000000	-0.983298	28.960500	-4.912150	3.502890
7.515000	5.036450	389.474000	43.986700	0.175678	0.000000	-1.445090	-23.642000	7.644720	-8.765010	-7.734760	362.733000	-38.685300	0.208163	0.000000	-0.981325	28.536900	-4.973390	3.589720
7.520000	6.045180	391.494000	44.744800	0.175797	0.000000	-1.444760	-23.877200	7.756650	-8.754770	-7.626160	362.865000	-40.068000	0.207595	0.000000	-0.983600	29.372500	-5.050820	3.415080
7.525000	6.468360	394.337000	46.384500	0.174648	0.000000	-1.443880	-24.390500	7.899800	-9.253570	-7.231830	366.540000	-41.200900	0.207696	0.000000	-0.982687	29.324100	-4.979360	3.480890
7.530000	7.446900	396.621000	47.216200	0.175336	0.000000	-1.443990	-24.474200	7.967350	-9.027210	-7.156160	369.828000	-42.563300	0.207754	0.000000	-0.982023	29.339600	-5.040930	3.550710
7.535000	7.771620	400.980000	48.104600	0.176167	0.000000	-1.444780	-24.421600	8.089970	-8.780560	-7.109390	371.130000	-43.722500	0.208170	0.000000	-0.982357	29.565400	-5.003060	3.730100
7.540000	8.359200	402.980000	47.713400	0.176339	0.000000	-1.444070	-24.822700	8.114050	-8.769370	-7.468180	375.464000	-44.484700	0.208529	0.000000	-0.982431	29.943700	-5.079520	3.919530
7.545000	8.394160	404.938000	48.332200	0.176827	0.000000	-1.443070	-25.349500	8.089600	-8.614720	-7.908210	375.307000	-45.889700	0.207956	0.000000	-0.982500	29.965900	-5.121690	3.733640
7.550000	8.950580	404.863000	48.944200	0.177519	0.000000	-1.443330	-25.227900	8.171800	-8.314670	-7.786590	375.729000	-46.488700	0.208504	0.000000	-0.982822	30.116400	-5.019070	3.941840
7.555000	9.697200	408.256000	49.965700	0.177777	0.000000	-1.443350	-25.424100	8.187980	-8.280820	-8.319750	377.261000	-47.061600	0.208158	0.000000	-0.982706	30.205000	-5.074000	3.841360
7.560000	9.953580	408.950000	50.505200	0.178132	0.000000	-1.442520	-25.803300	8.259000	-8.137510	-8.194070	379.180000	-47.964700	0.208295	0.000000	-0.982381	30.232600	-5.092430	3.921890
7.565000	9.728880	410.583000	51.012100	0.178921	0.000000	-1.441840	-26.191800	8.126890	-7.855980	-8.111750	380.425000	-48.284100	0.208651	0.000000	-0.982304	30.299000	-5.020180	4.062760
7.570000	8.988620	409.974000	51.379800	0.179575	0.000000	-1.441750	-26.200500	8.049930	-7.568580	-8.243770	380.805000	-48.903500	0.208716	0.000000	-0.982882	30.552300	-5.060980	4.108260
7.575000	8.289450	410.060000	50.954100	0.180193	0.000000	-1.441470	-26.333100	7.948820	-7.326380	-8.185930	380.452000	-49.514600	0.209212	0.000000	-0.982610	30.419800	-5.021620	4.302300
7.580000	7.884010	409.803000	50.907300	0.180371	0.000000	-1.441230	-26.419100	7.936600	-7.245550	-8.212250	381.036000	-50.396800	0.208553	0.000000	-0.983290	30.726700	-5.096610	4.077300
7.585000	8.004350	409.296000	51.418900	0.181049	0.000000	-1.440540	-26.669700	7.842230	-6.959420	-7.643960	381.633000	-50.955300	0.208711	0.000000	-0.982987	30.647800	-5.050530	4.139830
7.590000	8.618450	408.394000	51.415600	0.181318	0.000000	-1.440210	-26.734400	7.786170	-6.841550	-7.869520	381.461000	-51.915100	0.209059	0.000000	-0.983485	30.828900	-5.051470	4.293320
7.595000	8.793940	407.858000	51.663600	0.182242	0.000000	-1.439860	-26.839500	7.913580	-6.430300	-8.106780	383.206000	-52.100100	0.209528	0.000000	-0.982991	30.783600	-5.021210	4.489610
7.600000	8.648890	404.903000	51.190800	0.182371	0.000000	-1.438960	-27.008500	7.802570	-6.339090	-8.006450	382.699000	-52.748000	0.210118	0.000000	-0.983215	30.828300	-5.038370	4.728860
7.605000	8.889330	405.377000	51.563600	0.183084	0.000000	-1.438810	-27.099000	7.810380	-6.050700	-8.411690	383.196000	-52.625000	0.210197	0.000000	-0.983408	30.947000	-4.938630	4.752080
7.610000	8.168340	405.895000	50.785700	0.183806	0.000000	-1.438220	-27.382400	7.700750	-5.781830	-8.768460	383.255000	-53.174800	0.210840	0.000000	-0.983898	31.145400	-4.861850	5.007600
7.615000	7.376170	403.662000	50.984400	0.184784	0.000000	-1.437480	-27.542700	7.587600	-5.345460	-8.538680	381.551000	-53.391600	0.211170	0.000000	-0.984284	31.151400	-4.844360	5.120350
